# Blender v2.93.6 OBJ File: 'road.blend'
# www.blender.org
mtllib road.mtl
o Plane_Plane.001
v 6.127597 0.373484 -6.037347
v 6.127597 0.000000 -6.037347
v 7.707010 0.000000 -6.037347
v 9.806207 0.373484 -6.037347
v 6.127597 0.186742 -6.037347
v 6.127597 0.373484 -3.018673
v 6.127597 0.000000 -3.018673
v 6.127597 0.186742 -3.018673
v 6.127597 0.280113 -6.037347
v 6.127597 0.373484 -1.509337
v 6.127597 0.000000 -1.509337
v 6.127597 0.093371 -6.037347
v 6.127597 0.373484 -4.528010
v 6.127597 0.000000 -4.528010
v 6.127597 0.280113 -3.018673
v 6.127597 0.093371 -3.018673
v 6.127597 0.186742 -4.528010
v 6.127597 0.093371 -4.528010
v 6.127597 0.280113 -4.528010
v 6.323480 0.000000 -4.528010
v 6.323480 0.000000 -3.018673
v 6.323480 0.093371 -3.018673
v 6.323480 0.186742 -3.018673
v 6.323480 0.186742 -4.528010
v 6.323480 0.280113 -3.018673
v 6.323480 0.093371 -4.528010
v 6.323480 0.280113 -4.528010
v 9.806207 0.209527 -6.037347
v 10.080891 0.209527 -6.037347
v 10.080891 0.080273 -6.037347
v 10.406433 0.080273 -6.037347
v 10.406433 -0.078211 -6.037347
v 10.589340 -0.078211 -6.037347
v 10.589340 -0.216223 -6.037347
v 10.911645 -0.216223 -6.037347
v 10.911645 -0.347936 -6.037347
v -6.127597 0.373484 -6.037347
v -6.127597 0.000000 -6.037347
v 0.000000 0.190787 -6.037347
v -7.707010 0.000000 -6.037347
v -9.806207 0.373484 -6.037347
v -6.127597 0.186742 -6.037347
v -6.127597 0.373484 -3.018673
v -6.127597 0.000000 -3.018673
v -6.127597 0.186742 -3.018673
v -6.127597 0.280113 -6.037347
v -6.127597 0.373484 -1.509337
v -6.127597 0.000000 -1.509337
v -6.127597 0.093371 -6.037347
v -6.127597 0.373484 -4.528010
v -6.127597 0.000000 -4.528010
v -6.127597 0.280113 -3.018673
v -6.127597 0.093371 -3.018673
v -6.127597 0.186742 -4.528010
v -6.127597 0.093371 -4.528010
v -6.127597 0.280113 -4.528010
v -6.323480 0.000000 -4.528010
v -6.323480 0.000000 -3.018673
v -6.323480 0.093371 -3.018673
v -6.323480 0.186742 -3.018673
v -6.323480 0.186742 -4.528010
v -6.323480 0.280113 -3.018673
v -6.323480 0.093371 -4.528010
v -6.323480 0.280113 -4.528010
v -9.806207 0.209527 -6.037347
v -10.080891 0.209527 -6.037347
v -10.080891 0.080273 -6.037347
v -10.406433 0.080273 -6.037347
v -10.406433 -0.078211 -6.037347
v -10.589340 -0.078211 -6.037347
v -10.589340 -0.216223 -6.037347
v -10.911645 -0.216223 -6.037347
v -10.911645 -0.347936 -6.037347
v 6.127597 0.373484 6.037347
v 6.127597 0.000000 6.037347
v 6.127597 0.373484 0.000000
v 7.707010 0.000000 0.000000
v 9.806207 0.373484 0.000000
v 6.127597 0.000000 0.000000
v 7.707010 0.000000 6.037347
v 9.806207 0.373484 6.037347
v 6.127597 0.186742 6.037347
v 6.127597 0.373484 3.018673
v 6.127597 0.000000 3.018673
v 6.127597 0.186742 0.000000
v 6.127597 0.186742 3.018673
v 6.127597 0.280113 6.037347
v 6.127597 0.373484 1.509337
v 6.127597 0.000000 1.509337
v 6.127597 0.093371 0.000000
v 6.127597 0.093371 6.037347
v 6.127597 0.373484 4.528010
v 6.127597 0.000000 4.528010
v 6.127597 0.280113 0.000000
v 6.127597 0.280113 3.018673
v 6.127597 0.093371 3.018673
v 6.127597 0.186742 4.528010
v 6.127597 0.093371 4.528010
v 6.127597 0.280113 4.528010
v 6.323480 0.000000 4.528010
v 6.323480 0.000000 3.018673
v 6.323480 0.093371 3.018673
v 6.323480 0.186742 3.018673
v 6.323480 0.186742 4.528010
v 6.323480 0.280113 3.018673
v 6.323480 0.093371 4.528010
v 6.323480 0.280113 4.528010
v 9.806207 0.209527 0.000000
v 9.806207 0.209527 6.037347
v 10.080891 0.209527 0.000000
v 10.080891 0.209527 6.037347
v 10.080891 0.080273 0.000000
v 10.080891 0.080273 6.037347
v 10.406433 0.080273 0.000000
v 10.406433 0.080273 6.037347
v 10.406433 -0.078211 0.000000
v 10.406433 -0.078211 6.037347
v 10.589340 -0.078211 0.000000
v 10.589340 -0.078211 6.037347
v 10.589340 -0.216223 0.000000
v 10.589340 -0.216223 6.037347
v 10.911645 -0.216223 0.000000
v 10.911645 -0.216223 6.037347
v 10.911645 -0.347936 0.000000
v 10.911645 -0.347936 6.037347
v -6.127597 0.373484 6.037347
v -6.127597 0.000000 6.037347
v -6.127597 0.373484 0.000000
v -7.707010 0.000000 0.000000
v -9.806207 0.373484 0.000000
v 0.000000 0.190787 6.037347
v -6.127597 0.000000 0.000000
v -7.707010 0.000000 6.037347
v 0.000000 0.190787 0.000000
v -9.806207 0.373484 6.037347
v -6.127597 0.186742 6.037347
v -6.127597 0.373484 3.018673
v -6.127597 0.000000 3.018673
v -6.127597 0.186742 0.000000
v -6.127597 0.186742 3.018673
v -6.127597 0.280113 6.037347
v -6.127597 0.373484 1.509337
v -6.127597 0.000000 1.509337
v -6.127597 0.093371 0.000000
v -6.127597 0.093371 6.037347
v -6.127597 0.373484 4.528010
v -6.127597 0.000000 4.528010
v -6.127597 0.280113 0.000000
v -6.127597 0.280113 3.018673
v -6.127597 0.093371 3.018673
v -6.127597 0.186742 4.528010
v -6.127597 0.093371 4.528010
v -6.127597 0.280113 4.528010
v -6.323480 0.000000 4.528010
v -6.323480 0.000000 3.018673
v -6.323480 0.093371 3.018673
v -6.323480 0.186742 3.018673
v -6.323480 0.186742 4.528010
v -6.323480 0.280113 3.018673
v -6.323480 0.093371 4.528010
v -6.323480 0.280113 4.528010
v -9.806207 0.209527 0.000000
v -9.806207 0.209527 6.037347
v -10.080891 0.209527 0.000000
v -10.080891 0.209527 6.037347
v -10.080891 0.080273 0.000000
v -10.080891 0.080273 6.037347
v -10.406433 0.080273 0.000000
v -10.406433 0.080273 6.037347
v -10.406433 -0.078211 0.000000
v -10.406433 -0.078211 6.037347
v -10.589340 -0.078211 0.000000
v -10.589340 -0.078211 6.037347
v -10.589340 -0.216223 0.000000
v -10.589340 -0.216223 6.037347
v -10.911645 -0.216223 0.000000
v -10.911645 -0.216223 6.037347
v -10.911645 -0.347936 0.000000
v -10.911645 -0.347936 6.037347
vt -1.000705 -0.652126
vt -0.947857 1.909135
vt 1.557798 1.844465
vt 1.504951 -0.716797
vt 0.878536 -0.700629
vt 0.252123 -0.684461
vt -0.374291 -0.668294
vt -0.995394 -0.951394
vt -0.995394 1.968194
vt 1.967838 1.968194
vt 1.967838 1.238297
vt 1.967838 0.508399
vt 1.967838 -0.221497
vt 1.967838 -0.951394
vt 1.191377 0.394561
vt 1.191377 0.447281
vt 1.191377 0.500000
vt 1.191377 0.552719
vt 1.191377 0.605439
vt 3.268405 0.605439
vt 2.083150 0.394561
vt 2.083150 -1.204412
vt 3.268405 -1.204412
vt 3.268405 2.204412
vt 2.083150 2.204412
vt 1.191377 0.500000
vt 1.301977 0.500000
vt 1.301977 -0.352206
vt 1.191377 -0.352206
vt 0.358786 0.502454
vt 0.123084 0.148900
vt 0.108503 0.170772
vt 0.093921 0.192644
vt 0.079340 0.214516
vt 0.064759 0.236387
vt 0.300462 0.589941
vt 0.536164 0.943494
vt 0.550745 0.921622
vt 0.565326 0.899750
vt 0.579907 0.877879
vt 0.594488 0.856007
vt 0.838992 0.156111
vt 0.863844 0.193390
vt 0.261243 1.097291
vt 0.236391 1.060012
vt 0.842762 0.678178
vt 0.842762 0.716861
vt 0.923915 0.716861
vt 0.923915 0.678178
vt 0.923915 0.639496
vt 0.923915 0.600813
vt 0.842762 0.600813
vt 0.842762 0.639496
vt 0.338673 0.911096
vt 0.319369 0.882139
vt 0.300065 0.853183
vt 0.280761 0.824227
vt 0.748838 0.122110
vt 0.768143 0.151067
vt 0.787447 0.180023
vt 0.806751 0.208979
vt 0.826055 0.237936
vt 0.357978 0.940052
vt 1.191377 -0.352206
vt 1.301977 -0.352206
vt 1.301977 0.500000
vt 1.191377 0.500000
vt 0.988795 0.324443
vt 0.988775 0.324472
vt 0.988755 0.324502
vt 0.988280 0.323788
vt 0.988300 0.323759
vt 0.988319 0.323729
vt 0.988339 0.323700
vt 0.988814 0.324413
vt 0.842762 0.639496
vt 0.842762 0.600813
vt 0.923915 0.600813
vt 0.923915 0.639496
vt 0.923915 0.678178
vt 0.923915 0.716861
vt 0.842762 0.716861
vt 0.842762 0.678178
vt 0.029450 0.331205
vt 0.500855 1.038311
vt 0.474074 1.078483
vt 0.002669 0.371376
vt 0.448908 0.173423
vt 0.763177 0.644828
vt 0.642517 0.825818
vt 0.328247 0.354414
vt -0.022946 0.409799
vt 0.448459 1.116906
vt 0.425677 1.151078
vt -0.045727 0.443971
vt 0.733488 -0.253447
vt 1.047757 0.217958
vt 0.904756 0.432460
vt 0.590486 -0.038945
vt 0.090768 0.239228
vt 0.562173 0.946335
vt 0.528838 0.996336
vt 0.057434 0.289230
vt 0.328247 0.354414
vt 0.642517 0.825818
vt 0.562173 0.946334
vt 0.247904 0.474929
vt 0.002669 0.371376
vt 0.474074 1.078483
vt 0.448459 1.116906
vt -0.022946 0.409799
vt 0.590486 -0.038945
vt 0.904756 0.432460
vt 0.763177 0.644828
vt 0.448908 0.173423
vt 0.057434 0.289230
vt 0.528838 0.996337
vt 0.500855 1.038311
vt 0.029450 0.331205
vt -1.000705 -0.652126
vt -0.374291 -0.668294
vt 0.252123 -0.684461
vt 0.878536 -0.700629
vt 1.504951 -0.716797
vt 1.557798 1.844465
vt -0.947857 1.909135
vt 1.967838 -0.951394
vt 1.967838 -0.221497
vt 1.967838 0.508399
vt 1.967838 1.238297
vt 1.967838 1.968194
vt 1.191377 0.394561
vt 2.083150 0.394561
vt 3.268405 0.605439
vt 1.191377 0.605439
vt 1.191377 0.552719
vt 1.191377 0.500000
vt 1.191377 0.447281
vt 2.083150 -1.204412
vt 2.083150 2.204412
vt 3.268405 2.204412
vt 3.268405 -1.204412
vt 1.191377 0.500000
vt 1.191377 -0.352206
vt 1.301977 -0.352206
vt 1.301977 0.500000
vt 0.358786 0.502454
vt 0.594488 0.856007
vt 0.579907 0.877879
vt 0.565326 0.899750
vt 0.550745 0.921622
vt 0.536164 0.943494
vt 0.300462 0.589941
vt 0.064759 0.236387
vt 0.079340 0.214516
vt 0.093921 0.192644
vt 0.108503 0.170772
vt 0.123084 0.148900
vt 0.838992 0.156111
vt 0.236391 1.060012
vt 0.261243 1.097291
vt 0.863844 0.193390
vt 0.842762 0.678178
vt 0.842762 0.639496
vt 0.842762 0.600813
vt 0.923915 0.600813
vt 0.923915 0.639496
vt 0.923915 0.678178
vt 0.923915 0.716861
vt 0.842762 0.716861
vt 0.338673 0.911096
vt 0.357978 0.940052
vt 0.826055 0.237936
vt 0.806751 0.208979
vt 0.787447 0.180023
vt 0.768143 0.151067
vt 0.748838 0.122110
vt 0.280761 0.824227
vt 0.300065 0.853183
vt 0.319369 0.882139
vt 1.191377 -0.352206
vt 1.191377 0.500000
vt 1.301977 0.500000
vt 1.301977 -0.352206
vt 0.988795 0.324443
vt 0.988814 0.324413
vt 0.988339 0.323700
vt 0.988319 0.323729
vt 0.988300 0.323759
vt 0.988280 0.323788
vt 0.988755 0.324502
vt 0.988775 0.324472
vt 0.842762 0.639496
vt 0.842762 0.678178
vt 0.842762 0.716861
vt 0.923915 0.716861
vt 0.923915 0.678178
vt 0.923915 0.639496
vt 0.923915 0.600813
vt 0.842762 0.600813
vt 0.029450 0.331205
vt 0.002669 0.371376
vt 0.474074 1.078483
vt 0.500855 1.038311
vt 0.448908 0.173423
vt 0.328247 0.354414
vt 0.642517 0.825818
vt 0.763177 0.644828
vt -0.022946 0.409799
vt -0.045727 0.443971
vt 0.425677 1.151078
vt 0.448459 1.116906
vt 0.733488 -0.253447
vt 0.590486 -0.038945
vt 0.904756 0.432460
vt 1.047757 0.217958
vt 0.090768 0.239228
vt 0.057434 0.289230
vt 0.528838 0.996336
vt 0.562173 0.946335
vt 0.328247 0.354414
vt 0.247904 0.474929
vt 0.562173 0.946334
vt 0.642517 0.825818
vt 0.002669 0.371376
vt -0.022946 0.409799
vt 0.448459 1.116906
vt 0.474074 1.078483
vt 0.590486 -0.038945
vt 0.448908 0.173423
vt 0.763177 0.644828
vt 0.904756 0.432460
vt 0.057434 0.289230
vt 0.029450 0.331205
vt 0.500855 1.038311
vt 0.528838 0.996337
vt 2.083150 0.394561
vt 1.191377 0.394561
vt 1.191377 0.447281
vt 1.191377 0.500000
vt 1.191377 0.552719
vt 1.191377 0.605439
vt 3.268405 0.605439
vt -0.374291 -0.668294
vt 0.252123 -0.684461
vt 0.878536 -0.700629
vt 1.504951 -0.716797
vt 1.557798 1.844465
vt -0.995394 -0.951394
vt 1.967838 -0.951394
vt 1.967838 -0.221497
vt 1.967838 0.508399
vt 1.967838 1.238297
vt 1.191377 0.394561
vt 2.083150 0.394561
vt 3.268405 0.605439
vt 1.191377 0.605439
vt 1.191377 0.552719
vt 1.191377 0.500000
vt 1.191377 0.447281
vt 2.083150 -1.204412
vt 3.268405 -1.204412
vt 1.191377 0.500000
vt 1.191377 -0.352206
vt 1.301977 -0.352206
vt 1.301977 0.500000
vt 0.358786 0.502454
vt 0.300462 0.589941
vt 0.064759 0.236387
vt 0.079340 0.214516
vt 0.093921 0.192644
vt 0.108503 0.170772
vt 0.123084 0.148900
vt 0.838992 0.156111
vt 0.236391 1.060012
vt 0.261243 1.097291
vt 0.863844 0.193390
vt 0.842762 0.678178
vt 0.842762 0.639496
vt 0.842762 0.600813
vt 0.923915 0.600813
vt 0.923915 0.639496
vt 0.923915 0.678178
vt 0.923915 0.716861
vt 0.842762 0.716861
vt 0.338673 0.911096
vt 0.357978 0.940052
vt 0.826055 0.237936
vt 0.806751 0.208979
vt 0.787447 0.180023
vt 0.768143 0.151067
vt 0.748838 0.122110
vt 0.280761 0.824227
vt 0.300065 0.853183
vt 0.319369 0.882139
vt 1.191377 -0.352206
vt 1.191377 0.500000
vt 1.301977 0.500000
vt 1.301977 -0.352206
vt 0.988795 0.324443
vt 0.988814 0.324413
vt 0.988339 0.323700
vt 0.988319 0.323729
vt 0.988300 0.323759
vt 0.988280 0.323788
vt 0.988755 0.324502
vt 0.988775 0.324472
vt 0.842762 0.639496
vt 0.842762 0.678178
vt 0.842762 0.716861
vt 0.923915 0.716861
vt 0.923915 0.678178
vt 0.923915 0.639496
vt 0.923915 0.600813
vt 0.842762 0.600813
vt 0.029450 0.331205
vt 0.002669 0.371376
vt 0.448908 0.173423
vt 0.328247 0.354414
vt -0.022946 0.409799
vt -0.045727 0.443971
vt 0.733488 -0.253447
vt 0.590486 -0.038945
vt 0.090768 0.239228
vt 0.057434 0.289230
vt 0.328247 0.354414
vt 0.247904 0.474929
vt 0.002669 0.371376
vt -0.022946 0.409799
vt 0.590486 -0.038945
vt 0.448908 0.173423
vt 0.057434 0.289230
vt 0.029450 0.331205
vt 2.083150 0.394561
vt 3.268405 0.605439
vt 1.191377 0.605439
vt 1.191377 0.552719
vt 1.191377 0.500000
vt 1.191377 0.447281
vt 1.191377 0.394561
vt 1.557798 1.844465
vt 1.504951 -0.716797
vt 0.878536 -0.700629
vt 0.252123 -0.684461
vt -0.374291 -0.668294
vt 1.967838 1.238297
vt 1.967838 0.508399
vt 1.967838 -0.221497
vt 1.967838 -0.951394
vt 1.191377 0.394561
vt 1.191377 0.447281
vt 1.191377 0.500000
vt 1.191377 0.552719
vt 1.191377 0.605439
vt 3.268405 0.605439
vt 2.083150 0.394561
vt 2.083150 -1.204412
vt 3.268405 -1.204412
vt 1.191377 0.500000
vt 1.301977 0.500000
vt 1.301977 -0.352206
vt 1.191377 -0.352206
vt 0.358786 0.502454
vt 0.123084 0.148900
vt 0.108503 0.170772
vt 0.093921 0.192644
vt 0.079340 0.214516
vt 0.064759 0.236387
vt 0.300462 0.589941
vt 0.838992 0.156111
vt 0.863844 0.193390
vt 0.261243 1.097291
vt 0.236391 1.060012
vt 0.842762 0.678178
vt 0.842762 0.716861
vt 0.923915 0.716861
vt 0.923915 0.678178
vt 0.923915 0.639496
vt 0.923915 0.600813
vt 0.842762 0.600813
vt 0.842762 0.639496
vt 0.338673 0.911096
vt 0.319369 0.882139
vt 0.300065 0.853183
vt 0.280761 0.824227
vt 0.748838 0.122110
vt 0.768143 0.151067
vt 0.787447 0.180023
vt 0.806751 0.208979
vt 0.826055 0.237936
vt 0.357978 0.940052
vt 1.191377 -0.352206
vt 1.301977 -0.352206
vt 1.301977 0.500000
vt 1.191377 0.500000
vt 0.988795 0.324443
vt 0.988775 0.324472
vt 0.988755 0.324502
vt 0.988280 0.323788
vt 0.988300 0.323759
vt 0.988319 0.323729
vt 0.988339 0.323700
vt 0.988814 0.324413
vt 0.842762 0.639496
vt 0.842762 0.600813
vt 0.923915 0.600813
vt 0.923915 0.639496
vt 0.923915 0.678178
vt 0.923915 0.716861
vt 0.842762 0.716861
vt 0.842762 0.678178
vt 0.029450 0.331205
vt 0.002669 0.371376
vt 0.448908 0.173423
vt 0.328247 0.354414
vt -0.022946 0.409799
vt -0.045727 0.443971
vt 0.733488 -0.253447
vt 0.590486 -0.038945
vt 0.090768 0.239228
vt 0.057434 0.289230
vt 0.328247 0.354414
vt 0.247904 0.474929
vt 0.002669 0.371376
vt -0.022946 0.409799
vt 0.590486 -0.038945
vt 0.448908 0.173423
vt 0.057434 0.289230
vt 0.029450 0.331205
vn 0.0000 1.0000 0.0000
vn 0.0311 0.9995 0.0000
vn 0.0000 0.0000 -1.0000
vn 0.1752 -0.9845 0.0000
vn -1.0000 0.0000 0.0000
vn 0.0000 -1.0000 0.0000
vn 0.0000 0.0000 1.0000
vn 1.0000 0.0000 0.0000
vn -0.0311 0.9995 0.0000
vn -0.1752 -0.9845 0.0000
usemtl Material.001
s off
f 76/1/1 78/2/1 4/3/1 1/4/1 13/5/1 6/6/1 10/7/1
f 39/8/2 134/9/2 79/10/2 11/11/2 7/12/2 14/13/2 2/14/2
f 2/15/3 12/16/3 5/17/3 9/18/3 1/19/3 4/20/3 3/21/3
f 3/22/4 4/23/4 78/24/4 77/25/4
f 7/26/1 21/27/1 20/28/1 14/29/1
f 10/30/5 6/31/5 15/32/5 8/33/5 16/34/5 7/35/5 11/36/5 79/37/5 90/38/5 85/39/5 94/40/5 76/41/5
f 15/42/5 6/43/5 13/44/5 19/45/5
f 8/46/3 15/47/3 25/48/3 23/49/3 22/50/3 21/51/3 7/52/3 16/53/3
f 9/54/5 5/55/5 12/56/5 2/57/5 14/58/5 18/59/5 17/60/5 19/61/5 13/62/5 1/63/5
f 19/64/6 27/65/6 25/66/6 15/67/6
f 24/68/5 26/69/5 20/70/5 21/71/5 22/72/5 23/73/5 25/74/5 27/75/5
f 18/76/7 14/77/7 20/78/7 26/79/7 24/80/7 27/81/7 19/82/7 17/83/7
f 4/84/8 78/85/8 108/86/8 28/87/8
f 28/88/1 108/89/1 110/90/1 29/91/1
f 29/92/8 110/93/8 112/94/8 30/95/8
f 30/96/1 112/97/1 114/98/1 31/99/1
f 31/100/8 114/101/8 116/102/8 32/103/8
f 32/104/1 116/105/1 118/106/1 33/107/1
f 33/108/8 118/109/8 120/110/8 34/111/8
f 34/112/1 120/113/1 122/114/1 35/115/1
f 35/116/8 122/117/8 124/118/8 36/119/8
f 128/120/1 47/121/1 43/122/1 50/123/1 37/124/1 41/125/1 130/126/1
f 39/8/9 38/127/9 51/128/9 44/129/9 48/130/9 132/131/9 134/9/9
f 38/132/3 40/133/3 41/134/3 37/135/3 46/136/3 42/137/3 49/138/3
f 40/139/10 129/140/10 130/141/10 41/142/10
f 44/143/1 51/144/1 57/145/1 58/146/1
f 47/147/8 128/148/8 148/149/8 139/150/8 144/151/8 132/152/8 48/153/8 44/154/8 53/155/8 45/156/8 52/157/8 43/158/8
f 52/159/8 56/160/8 50/161/8 43/162/8
f 45/163/3 53/164/3 44/165/3 58/166/3 59/167/3 60/168/3 62/169/3 52/170/3
f 46/171/8 37/172/8 50/173/8 56/174/8 54/175/8 55/176/8 51/177/8 38/178/8 49/179/8 42/180/8
f 56/181/6 52/182/6 62/183/6 64/184/6
f 61/185/8 64/186/8 62/187/8 60/188/8 59/189/8 58/190/8 57/191/8 63/192/8
f 55/193/7 54/194/7 56/195/7 64/196/7 61/197/7 63/198/7 57/199/7 51/200/7
f 41/201/5 65/202/5 162/203/5 130/204/5
f 65/205/1 66/206/1 164/207/1 162/208/1
f 66/209/5 67/210/5 166/211/5 164/212/5
f 67/213/1 68/214/1 168/215/1 166/216/1
f 68/217/5 69/218/5 170/219/5 168/220/5
f 69/221/1 70/222/1 172/223/1 170/224/1
f 70/225/5 71/226/5 174/227/5 172/228/5
f 71/229/1 72/230/1 176/231/1 174/232/1
f 72/233/5 73/234/5 178/235/5 176/236/5
f 77/237/3 79/238/3 90/239/3 85/240/3 94/241/3 76/242/3 78/243/3
f 76/1/1 88/244/1 83/245/1 92/246/1 74/247/1 81/248/1 78/2/1
f 131/249/2 75/250/2 93/251/2 84/252/2 89/253/2 79/10/2 134/9/2
f 75/254/7 80/255/7 81/256/7 74/257/7 87/258/7 82/259/7 91/260/7
f 80/261/4 77/25/4 78/24/4 81/262/4
f 84/263/1 93/264/1 100/265/1 101/266/1
f 88/267/5 76/41/5 94/40/5 85/39/5 90/38/5 79/37/5 89/268/5 84/269/5 96/270/5 86/271/5 95/272/5 83/273/5
f 95/274/5 99/275/5 92/276/5 83/277/5
f 86/278/7 96/279/7 84/280/7 101/281/7 102/282/7 103/283/7 105/284/7 95/285/7
f 87/286/5 74/287/5 92/288/5 99/289/5 97/290/5 98/291/5 93/292/5 75/293/5 91/294/5 82/295/5
f 99/296/6 95/297/6 105/298/6 107/299/6
f 104/300/5 107/301/5 105/302/5 103/303/5 102/304/5 101/305/5 100/306/5 106/307/5
f 98/308/3 97/309/3 99/310/3 107/311/3 104/312/3 106/313/3 100/314/3 93/315/3
f 81/316/8 109/317/8 108/86/8 78/85/8
f 109/318/1 111/319/1 110/90/1 108/89/1
f 111/320/8 113/321/8 112/94/8 110/93/8
f 113/322/1 115/323/1 114/98/1 112/97/1
f 115/324/8 117/325/8 116/102/8 114/101/8
f 117/326/1 119/327/1 118/106/1 116/105/1
f 119/328/8 121/329/8 120/110/8 118/109/8
f 121/330/1 123/331/1 122/114/1 120/113/1
f 123/332/8 125/333/8 124/118/8 122/117/8
f 129/334/3 130/335/3 128/336/3 148/337/3 139/338/3 144/339/3 132/340/3
f 128/120/1 130/126/1 135/341/1 126/342/1 146/343/1 137/344/1 142/345/1
f 131/249/9 134/9/9 132/131/9 143/346/9 138/347/9 147/348/9 127/349/9
f 127/350/7 145/351/7 136/352/7 141/353/7 126/354/7 135/355/7 133/356/7
f 133/357/10 135/358/10 130/141/10 129/140/10
f 138/359/1 155/360/1 154/361/1 147/362/1
f 142/363/8 137/364/8 149/365/8 140/366/8 150/367/8 138/368/8 143/369/8 132/152/8 144/151/8 139/150/8 148/149/8 128/148/8
f 149/370/8 137/371/8 146/372/8 153/373/8
f 140/374/7 149/375/7 159/376/7 157/377/7 156/378/7 155/379/7 138/380/7 150/381/7
f 141/382/8 136/383/8 145/384/8 127/385/8 147/386/8 152/387/8 151/388/8 153/389/8 146/390/8 126/391/8
f 153/392/6 161/393/6 159/394/6 149/395/6
f 158/396/8 160/397/8 154/398/8 155/399/8 156/400/8 157/401/8 159/402/8 161/403/8
f 152/404/3 147/405/3 154/406/3 160/407/3 158/408/3 161/409/3 153/410/3 151/411/3
f 135/412/5 130/204/5 162/203/5 163/413/5
f 163/414/1 162/208/1 164/207/1 165/415/1
f 165/416/5 164/212/5 166/211/5 167/417/5
f 167/418/1 166/216/1 168/215/1 169/419/1
f 169/420/5 168/220/5 170/219/5 171/421/5
f 171/422/1 170/224/1 172/223/1 173/423/1
f 173/424/5 172/228/5 174/227/5 175/425/5
f 175/426/1 174/232/1 176/231/1 177/427/1
f 177/428/5 176/236/5 178/235/5 179/429/5
