# Blender v2.93.6 OBJ File: 'waterFountain.blend'
# www.blender.org
mtllib waterFountain.mtl
o Cube
v -3.983024 0.498021 -3.983023
v -4.120886 0.266726 -4.120886
v 3.983023 0.498021 -3.983024
v 4.120886 0.266726 -4.120886
v -3.983023 0.498021 3.983024
v -4.120886 0.266726 4.120886
v 3.983024 0.498021 3.983023
v 4.120886 0.266726 4.120886
v 1.830691 0.102127 -1.830691
v 1.830691 0.102127 1.830691
v -1.830691 0.102127 -1.830691
v -1.830691 0.102127 1.830691
v 1.327693 0.869837 -1.327693
v 1.327693 0.869837 1.327693
v -1.327693 0.869837 -1.327693
v -1.327693 0.869837 1.327693
v 1.327693 3.096768 -1.327693
v 1.327693 3.096768 1.327693
v -1.327693 3.096768 -1.327693
v -1.327693 3.096768 1.327693
v 1.051162 3.425330 -1.051162
v 1.051162 3.425330 1.051162
v -1.051162 3.425330 -1.051162
v -1.051162 3.425330 1.051162
v 1.051162 4.649148 -1.051162
v 1.051162 4.649148 1.051162
v -1.051162 4.649148 -1.051162
v -1.051162 4.649148 1.051162
v 0.624515 6.168248 -0.624515
v 0.624515 6.168248 0.624515
v -0.624515 6.168248 -0.624515
v -0.624515 6.168248 0.624515
v 0.624515 8.301479 -0.624515
v 0.624515 8.301479 0.624515
v -0.624515 8.301479 -0.624515
v -0.624515 8.301479 0.624515
v 0.350496 14.755353 -0.350496
v 0.350496 14.755353 0.350496
v -0.350496 14.755353 -0.350496
v -0.350496 14.755353 0.350496
v 0.022702 15.130366 -0.022702
v 0.022702 15.130366 0.022702
v -0.022702 15.130366 -0.022702
v -0.022702 15.130366 0.022702
v 0.004689 15.215993 -0.004689
v 0.004689 15.215993 0.004689
v -0.004689 15.215993 -0.004689
v -0.004689 15.215993 0.004689
v 3.681461 0.501383 -3.681461
v 3.681461 0.501383 3.681461
v -3.681461 0.501383 -3.681461
v -3.681461 0.501383 3.681461
v 1.027072 1.061776 -1.027072
v 1.027072 1.061776 1.027072
v -1.027072 1.061776 -1.027072
v -1.027072 1.061776 1.027072
v 2.919355 0.111293 -2.919356
v 2.919356 0.111293 2.919355
v -2.919356 0.111293 -2.919355
v -2.919355 0.111293 2.919356
v 0.895851 0.194367 -0.895851
v 0.895851 0.194367 0.895851
v -0.895851 0.194367 -0.895851
v -0.895851 0.194367 0.895851
v 3.603741 0.471559 -3.603741
v 3.603741 0.471559 3.603741
v -3.603741 0.471559 -3.603741
v -3.603741 0.471559 3.603741
v -3.143320 0.471559 3.143321
v 3.143320 0.471559 -3.143321
v 3.143321 0.471559 3.143320
v -3.143321 0.471559 -3.143320
v 1.327693 2.085026 -0.357492
v 1.327693 2.085026 0.357492
v 1.327693 2.249588 -0.357492
v 1.327693 2.249588 0.357492
v 0.807899 2.085026 -0.357492
v 0.807899 2.085026 0.357492
v 0.807899 2.249588 -0.357492
v 0.807899 2.249588 0.357492
v -7.522335 0.263088 7.522336
v 7.522336 0.263088 7.522335
v -7.522336 0.263088 -7.522335
v 7.522335 0.263088 -7.522336
v -7.522335 -0.035468 7.522336
v 7.522336 -0.035468 7.522335
v -7.522336 -0.035468 -7.522335
v 7.522335 -0.035468 -7.522336
vt 0.859118 -0.186110
vt 0.976649 -0.186110
vt 0.950853 -0.146104
vt 0.884914 -0.146104
vt 2.969657 0.374551
vt 2.817703 0.695866
vt 0.615632 0.695866
vt 0.463678 0.374551
vt 0.463678 -0.020404
vt 0.311725 0.300911
vt -1.890347 0.300911
vt -2.042300 -0.020404
vt 6.753697 -3.667110
vt -5.753695 -3.667110
vt -10.915601 -7.106713
vt 11.915603 -7.106713
vt 2.969657 -0.020404
vt 2.817703 0.300911
vt 0.615632 0.300911
vt 0.463678 -0.020404
vt 0.463678 0.374551
vt 0.311725 0.695866
vt -1.890347 0.695866
vt -2.042300 0.374551
vt -0.604933 -0.349833
vt -0.050196 -0.349833
vt -0.126405 -0.292245
vt -0.528724 -0.292245
vt 0.868328 -0.349833
vt 0.985860 -0.349833
vt 0.960063 -0.309827
vt 0.894125 -0.309827
vt -1.908149 2.104654
vt -1.908149 -1.104654
vt -0.851043 -0.400259
vt -0.851043 1.400258
vt 2.908149 -1.104654
vt 2.908149 2.104654
vt 1.851043 1.400258
vt 1.851043 -0.400258
vt -0.501500 0.803175
vt -0.501497 0.266133
vt -0.111879 0.510883
vt -0.111879 0.558425
vt 0.504543 -0.349833
vt 1.059280 -0.349833
vt 0.983071 -0.292245
vt 0.580752 -0.292245
vt -0.050196 -0.349833
vt 0.504541 -0.349833
vt 0.428333 -0.292245
vt 0.026013 -0.292245
vt 1.614017 -0.349833
vt 1.537809 -0.292245
vt 1.135489 -0.292245
vt 0.026013 -0.065789
vt 0.428331 -0.065789
vt 0.386433 -0.021778
vt 0.067909 -0.021778
vt 1.537807 -0.065789
vt 1.135489 -0.065789
vt -0.126406 -0.065789
vt -0.528724 -0.065789
vt -0.486828 -0.021778
vt -0.168304 -0.021778
vt -0.168304 0.133062
vt -0.486828 0.133062
vt 1.495909 -0.021778
vt 1.177385 -0.021778
vt 0.580752 -0.065789
vt 0.983070 -0.065789
vt 0.941172 -0.021778
vt 0.622648 -0.021778
vt 0.067909 0.133062
vt 0.386433 0.133062
vt 0.321791 0.329998
vt 0.132549 0.329998
vt 0.941172 0.133062
vt 0.622648 0.133062
vt 1.495909 0.133062
vt 1.177385 0.133062
vt 1.242025 0.329998
vt 1.431267 0.329998
vt 1.431266 0.596084
vt 1.242025 0.596084
vt -0.232946 0.329998
vt -0.422188 0.329998
vt 0.876530 0.329998
vt 0.687288 0.329998
vt -0.422188 0.596084
vt -0.232947 0.596084
vt -0.274468 1.364380
vt -0.380675 1.364380
vt 0.876529 0.596084
vt 0.687288 0.596084
vt 0.321790 0.596084
vt 0.132549 0.596084
vt 0.174062 1.364380
vt 0.280270 1.364380
vt 0.230604 1.408965
vt 0.223726 1.408965
vt 0.835008 1.364380
vt 0.728801 1.364380
vt 1.389746 1.364380
vt 1.283538 1.364380
vt -0.331011 1.408965
vt -0.324133 1.408965
vt -0.326860 1.419140
vt -0.328282 1.419140
vt 1.340080 1.408965
vt 1.333202 1.408965
vt 0.785343 1.408965
vt 0.778465 1.408965
vt 0.195189 -0.242638
vt 0.195490 -0.242638
vt 0.195490 -0.242594
vt 0.195189 -0.242594
vt 0.782615 1.419140
vt 0.781194 1.419140
vt 0.227877 1.419140
vt 0.226455 1.419140
vt 1.337353 1.419140
vt 1.335931 1.419140
vt -7.302839 -0.095177
vt -3.135186 -0.095177
vt -3.135187 0.333964
vt -7.302840 0.333964
vt -3.135186 -0.095177
vt 1.032466 -0.095177
vt 1.032466 0.333964
vt -3.135187 0.333964
vt 0.841266 -0.245497
vt 0.907205 -0.245497
vt 0.902992 -0.242832
vt 0.845478 -0.242832
vt 0.891117 -0.188969
vt 0.957055 -0.188969
vt 0.952843 -0.186304
vt 0.895329 -0.186304
vt 0.865320 -0.228975
vt 0.982852 -0.228975
vt 0.815470 -0.285503
vt 0.933001 -0.285503
vt -0.685867 1.363831
vt -0.685867 0.528158
vt 0.719223 0.817775
vt 0.719223 1.074214
vt 1.196224 0.528158
vt -0.685867 0.528158
vt -0.033596 -0.095721
vt 0.543953 -0.095721
vt -0.685867 -0.345546
vt -0.033596 -0.363831
vt 1.196224 -0.345546
vt 0.543953 -0.363831
vt 0.955851 -0.307161
vt 0.898337 -0.307161
vt 0.946641 -0.143439
vt 0.889127 -0.143439
vt 4.667654 -0.095177
vt 8.302840 -0.095177
vt 8.302839 0.333964
vt 4.667654 0.333964
vt 4.667654 0.333964
vt 8.302840 0.333964
vt 8.302839 0.763105
vt 4.667654 0.763105
vt -7.230764 2.380584
vt -7.230764 -0.562674
vt -6.964531 -0.374657
vt -6.964531 2.192567
vt -3.135186 -0.441404
vt -3.329345 -0.374655
vt -3.063111 2.380584
vt -3.329345 2.192567
vt 1.032468 -0.095177
vt 4.667654 -0.095177
vt 4.667654 0.333964
vt 1.032467 0.333964
vt 1.032468 0.333964
vt 4.667654 0.333964
vt 4.667654 0.763105
vt 1.032467 0.763105
vt -7.302839 0.333964
vt -3.135186 0.333964
vt -3.063111 0.750007
vt -7.302840 0.763105
vt -3.135186 0.333964
vt 1.032466 0.333964
vt 1.032466 0.763105
vt -3.063111 0.750007
vt 1.060740 0.313674
vt 1.060740 0.266133
vt 1.269481 0.266133
vt 1.269481 0.313674
vt 0.564869 0.266133
vt 0.175249 0.510883
vt 0.564867 0.803175
vt 0.175248 0.558425
vt 0.564869 0.266133
vt 0.851997 0.266133
vt 0.851997 0.313674
vt 0.564869 0.313674
vt 1.139125 0.319661
vt 0.851997 0.319661
vt 0.851997 0.313674
vt 1.139125 0.313674
vt 1.060739 0.266133
vt 1.060739 0.313674
vt 0.851997 0.319661
vt 0.564869 0.319661
vt 0.564869 0.313674
vt 0.851997 0.313674
vt 5.227259 0.974272
vt 0.500000 0.974272
vt 0.500000 0.368736
vt 5.227260 0.368736
vt -5.753697 4.667109
vt 6.753696 4.667109
vt 11.915601 8.106713
vt -10.915603 8.106713
vt -0.187817 -0.349833
vt 0.248047 -0.349833
vt 0.248047 -0.285503
vt -0.187817 -0.285503
vt 0.499999 0.368736
vt -4.227260 0.368736
vt -4.227260 -0.236799
vt 0.500000 -0.236799
vt -4.227260 0.974272
vt -4.227260 0.368736
vt 5.227259 0.368736
vt 5.227260 -0.236799
vn -0.7667 -0.6420 0.0000
vn 0.8590 0.5120 -0.0000
vn 0.0000 0.5120 0.8590
vn -0.0011 1.0000 0.0000
vn 0.0000 0.5120 -0.8590
vn -0.8590 0.5120 0.0000
vn 0.0000 0.5480 0.8365
vn -0.0000 -0.6420 -0.7667
vn -0.0000 0.9999 -0.0111
vn 0.0000 0.9999 0.0111
vn 1.0000 0.0000 0.0000
vn 0.8365 0.5480 -0.0000
vn -0.8365 0.5480 0.0000
vn -0.0000 0.5480 -0.8365
vn -0.7651 0.6439 0.0000
vn -1.0000 0.0000 0.0000
vn 0.0000 0.0000 -1.0000
vn 0.0000 0.0000 1.0000
vn 0.0000 0.6439 -0.7651
vn 0.0000 0.6439 0.7651
vn 0.7651 0.6439 0.0000
vn -0.9627 0.2704 0.0000
vn 0.0000 0.2704 -0.9628
vn 0.0000 0.2704 0.9628
vn 0.9627 0.2704 0.0000
vn 0.0000 0.0424 0.9991
vn -0.7529 0.6581 0.0000
vn 0.9991 0.0424 -0.0000
vn -0.9991 0.0424 0.0000
vn 0.0000 0.0424 -0.9991
vn 0.0000 0.2059 0.9786
vn -0.0000 0.6581 -0.7529
vn 0.0000 0.6581 0.7529
vn 0.7529 0.6581 -0.0000
vn 0.0000 1.0000 0.0000
vn 0.9786 0.2059 0.0000
vn -0.9786 0.2059 0.0000
vn -0.0000 0.2059 -0.9786
vn -0.3583 0.9336 0.0000
vn -0.0000 0.9336 -0.3583
vn -0.0000 -0.1496 -0.9888
vn -0.9888 -0.1496 0.0000
vn -0.0111 0.9999 0.0000
vn 0.0111 0.9999 -0.0000
vn 0.7667 -0.6420 -0.0000
vn 0.0000 -0.6420 0.7667
vn 0.0000 0.9992 0.0410
vn -0.0000 0.9992 -0.0410
vn -0.0410 0.9992 -0.0000
vn 0.0410 0.9992 0.0000
vn 0.0000 -0.1496 0.9888
vn 0.9888 -0.1496 -0.0000
vn 0.0000 0.5280 0.8493
vn 0.8493 0.5280 -0.0000
vn -0.0000 0.5280 -0.8493
vn -0.8493 0.5280 0.0000
vn 0.3583 0.9336 -0.0000
vn 0.0000 0.9336 0.3583
vn 0.0000 -1.0000 0.0000
vn 0.0011 1.0000 -0.0000
vn 0.0000 1.0000 0.0011
vn 0.0000 1.0000 -0.0011
usemtl Material
s off
f 9/1/1 10/2/1 54/3/1 53/4/1
f 4/5/2 3/6/2 7/7/2 8/8/2
f 8/9/3 7/10/3 5/11/3 6/12/3
f 6/13/4 2/14/4 83/15/4 81/16/4
f 2/17/5 1/18/5 3/19/5 4/20/5
f 6/21/6 5/22/6 1/23/6 2/24/6
f 12/25/7 10/26/7 14/27/7 16/28/7
f 10/29/8 12/30/8 56/31/8 54/32/8
f 3/33/9 1/34/9 51/35/9 49/36/9
f 5/37/10 7/38/10 50/39/10 52/40/10
f 18/41/11 14/42/11 74/43/11 76/44/11
f 10/45/12 9/46/12 13/47/12 14/48/12
f 11/49/13 12/50/13 16/51/13 15/52/13
f 9/46/14 11/53/14 15/54/14 13/55/14
f 19/56/15 20/57/15 24/58/15 23/59/15
f 15/52/16 16/51/16 20/57/16 19/56/16
f 13/55/17 15/54/17 19/60/17 17/61/17
f 16/28/18 14/27/18 18/62/18 20/63/18
f 24/64/18 22/65/18 26/66/18 28/67/18
f 17/61/19 19/60/19 23/68/19 21/69/19
f 20/63/20 18/62/20 22/65/20 24/64/20
f 18/70/21 17/71/21 21/72/21 22/73/21
f 27/74/22 28/75/22 32/76/22 31/77/22
f 22/73/11 21/72/11 25/78/11 26/79/11
f 23/59/16 24/58/16 28/75/16 27/74/16
f 21/69/17 23/68/17 27/80/17 25/81/17
f 29/82/17 31/83/17 35/84/17 33/85/17
f 25/81/23 27/80/23 31/83/23 29/82/23
f 28/67/24 26/66/24 30/86/24 32/87/24
f 26/79/25 25/78/25 29/88/25 30/89/25
f 36/90/26 34/91/26 38/92/26 40/93/26
f 32/87/18 30/86/18 34/91/18 36/90/18
f 30/89/11 29/88/11 33/94/11 34/95/11
f 31/77/16 32/76/16 36/96/16 35/97/16
f 39/98/27 40/99/27 44/100/27 43/101/27
f 34/95/28 33/94/28 37/102/28 38/103/28
f 35/97/29 36/96/29 40/99/29 39/98/29
f 33/85/30 35/84/30 39/104/30 37/105/30
f 44/106/31 42/107/31 46/108/31 48/109/31
f 37/105/32 39/104/32 43/110/32 41/111/32
f 40/93/33 38/92/33 42/107/33 44/106/33
f 38/103/34 37/102/34 41/112/34 42/113/34
f 47/114/35 48/115/35 46/116/35 45/117/35
f 42/113/36 41/112/36 45/118/36 46/119/36
f 43/101/37 44/100/37 48/120/37 47/121/37
f 41/111/38 43/110/38 47/122/38 45/123/38
f 50/124/39 49/125/39 65/126/39 66/127/39
f 52/128/40 50/129/40 66/130/40 68/131/40
f 55/132/41 53/133/41 61/134/41 63/135/41
f 56/136/42 55/137/42 63/138/42 64/139/42
f 1/34/43 5/37/43 52/40/43 51/35/43
f 7/38/44 3/33/44 49/36/44 50/39/44
f 12/140/45 11/141/45 55/137/45 56/136/45
f 11/142/46 9/143/46 53/133/46 55/132/46
f 60/144/47 58/145/47 62/146/47 64/147/47
f 57/148/48 59/149/48 63/150/48 61/151/48
f 59/149/49 60/152/49 64/153/49 63/150/49
f 58/154/50 57/148/50 61/151/50 62/155/50
f 54/32/51 56/31/51 64/156/51 62/157/51
f 53/4/52 54/3/52 62/158/52 61/159/52
f 59/160/53 57/161/53 70/162/53 72/163/53
f 60/164/54 59/165/54 72/166/54 69/167/54
f 65/168/35 67/169/35 72/170/35 70/171/35
f 67/169/35 68/172/35 69/173/35 72/170/35
f 68/172/35 66/174/35 71/175/35 69/173/35
f 66/174/35 65/168/35 70/171/35 71/175/35
f 58/176/55 60/177/55 69/178/55 71/179/55
f 57/180/56 58/181/56 71/182/56 70/183/56
f 51/184/57 52/185/57 68/186/57 67/187/57
f 49/188/58 51/189/58 67/190/58 65/191/58
f 76/192/17 74/193/17 78/194/17 80/195/17
f 14/42/11 13/196/11 73/197/11 74/43/11
f 13/196/11 17/198/11 75/199/11 73/197/11
f 17/198/11 18/41/11 76/44/11 75/199/11
f 78/200/11 77/201/11 79/202/11 80/203/11
f 75/204/59 76/205/59 80/206/59 79/207/59
f 73/208/18 75/209/18 79/202/18 77/201/18
f 74/210/35 73/211/35 77/212/35 78/213/35
f 83/214/17 84/215/17 88/216/17 87/217/17
f 4/218/60 8/219/60 82/220/60 84/221/60
f 8/219/61 6/13/61 81/16/61 82/220/61
f 2/14/62 4/218/62 84/221/62 83/15/62
f 85/222/59 87/223/59 88/224/59 86/225/59
f 81/226/16 83/227/16 87/228/16 85/229/16
f 84/215/11 82/230/11 86/231/11 88/216/11
f 82/232/18 81/226/18 85/229/18 86/233/18
