# Blender v2.93.6 OBJ File: 'road.blend'
# www.blender.org
mtllib road.mtl
o Plane_Plane.001
v 6.127597 0.373484 -6.037347
v 6.127597 0.000000 -6.037347
v 9.806207 0.373484 -6.037347
v 6.127597 0.186742 -6.037347
v 6.127597 0.373484 -3.018673
v 6.127597 0.000000 -3.018673
v 6.127597 0.186742 -3.018673
v 6.127597 0.280113 -6.037347
v 6.127597 0.373484 -1.509337
v 6.127597 0.000000 -1.509337
v 6.127597 0.093371 -6.037347
v 6.127597 0.373484 -4.528010
v 6.127597 0.000000 -4.528010
v 6.127597 0.280113 -3.018673
v 6.127597 0.093371 -3.018673
v 6.127597 0.186742 -4.528010
v 6.127597 0.093371 -4.528010
v 6.127597 0.280113 -4.528010
v 7.771219 0.000000 -4.528010
v 7.771219 0.000000 -3.018673
v 7.771219 0.093371 -3.018673
v 7.771219 0.186742 -3.018673
v 7.771219 0.186742 -4.528010
v 7.771219 0.280113 -3.018673
v 7.771219 0.093371 -4.528010
v 7.771219 0.280113 -4.528010
v 9.806207 0.209527 -6.037347
v 10.080891 0.209527 -6.037347
v 10.080891 0.080273 -6.037347
v 10.406433 0.080273 -6.037347
v 10.406433 -0.078211 -6.037347
v 10.589340 -0.078211 -6.037347
v 10.589340 -0.216223 -6.037347
v 10.911645 -0.216223 -6.037347
v 10.911645 -0.347936 -6.037347
v -6.127597 0.373484 -6.037347
v -6.127597 0.000000 -6.037347
v 0.000000 0.190787 -6.037347
v -9.806207 0.373484 -6.037347
v -6.127597 0.186742 -6.037347
v -6.127597 0.373484 -3.018673
v -6.127597 0.000000 -3.018673
v -6.127597 0.186742 -3.018673
v -6.127597 0.280113 -6.037347
v -6.127597 0.373484 -1.509337
v -6.127597 0.000000 -1.509337
v -6.127597 0.093371 -6.037347
v -6.127597 0.373484 -4.528010
v -6.127597 0.000000 -4.528010
v -6.127597 0.280113 -3.018673
v -6.127597 0.093371 -3.018673
v -6.127597 0.186742 -4.528010
v -6.127597 0.093371 -4.528010
v -6.127597 0.280113 -4.528010
v -7.771219 0.000000 -4.528010
v -7.771219 0.000000 -3.018673
v -7.771219 0.093371 -3.018673
v -7.771219 0.186742 -3.018673
v -7.771219 0.186742 -4.528010
v -7.771219 0.280113 -3.018673
v -7.771219 0.093371 -4.528010
v -7.771219 0.280113 -4.528010
v -9.806207 0.209527 -6.037347
v -10.080891 0.209527 -6.037347
v -10.080891 0.080273 -6.037347
v -10.406433 0.080273 -6.037347
v -10.406433 -0.078211 -6.037347
v -10.589340 -0.078211 -6.037347
v -10.589340 -0.216223 -6.037347
v -10.911645 -0.216223 -6.037347
v -10.911645 -0.347936 -6.037347
v 6.127597 0.373484 6.037347
v 6.127597 0.000000 6.037347
v 6.127597 0.373484 0.000000
v 9.806207 0.373484 0.000000
v 6.127597 0.000000 0.000000
v 9.806207 0.373484 6.037347
v 6.127597 0.186742 6.037347
v 6.127597 0.373484 3.018673
v 6.127597 0.000000 3.018673
v 6.127597 0.186742 0.000000
v 6.127597 0.186742 3.018673
v 6.127597 0.280113 6.037347
v 6.127597 0.373484 1.509337
v 6.127597 0.000000 1.509337
v 6.127597 0.093371 0.000000
v 6.127597 0.093371 6.037347
v 6.127597 0.373484 4.528010
v 6.127597 0.000000 4.528010
v 6.127597 0.280113 0.000000
v 6.127597 0.280113 3.018673
v 6.127597 0.093371 3.018673
v 6.127597 0.186742 4.528010
v 6.127597 0.093371 4.528010
v 6.127597 0.280113 4.528010
v 7.771219 0.000000 4.528010
v 7.771219 0.000000 3.018673
v 7.771219 0.093371 3.018673
v 7.771219 0.186742 3.018673
v 7.771219 0.186742 4.528010
v 7.771219 0.280113 3.018673
v 7.771219 0.093371 4.528010
v 7.771219 0.280113 4.528010
v 9.806207 0.209527 0.000000
v 9.806207 0.209527 6.037347
v 10.080891 0.209527 0.000000
v 10.080891 0.209527 6.037347
v 10.080891 0.080273 0.000000
v 10.080891 0.080273 6.037347
v 10.406433 0.080273 0.000000
v 10.406433 0.080273 6.037347
v 10.406433 -0.078211 0.000000
v 10.406433 -0.078211 6.037347
v 10.589340 -0.078211 0.000000
v 10.589340 -0.078211 6.037347
v 10.589340 -0.216223 0.000000
v 10.589340 -0.216223 6.037347
v 10.911645 -0.216223 0.000000
v 10.911645 -0.216223 6.037347
v 10.911645 -0.347936 0.000000
v 10.911645 -0.347936 6.037347
v -6.127597 0.373484 6.037347
v -6.127597 0.000000 6.037347
v -6.127597 0.373484 0.000000
v -9.806207 0.373484 0.000000
v 0.000000 0.190787 6.037347
v -6.127597 0.000000 0.000000
v 0.000000 0.190787 0.000000
v -9.806207 0.373484 6.037347
v -6.127597 0.186742 6.037347
v -6.127597 0.373484 3.018673
v -6.127597 0.000000 3.018673
v -6.127597 0.186742 0.000000
v -6.127597 0.186742 3.018673
v -6.127597 0.280113 6.037347
v -6.127597 0.373484 1.509337
v -6.127597 0.000000 1.509337
v -6.127597 0.093371 0.000000
v -6.127597 0.093371 6.037347
v -6.127597 0.373484 4.528010
v -6.127597 0.000000 4.528010
v -6.127597 0.280113 0.000000
v -6.127597 0.280113 3.018673
v -6.127597 0.093371 3.018673
v -6.127597 0.186742 4.528010
v -6.127597 0.093371 4.528010
v -6.127597 0.280113 4.528010
v -7.771219 0.000000 4.528010
v -7.771219 0.000000 3.018673
v -7.771219 0.093371 3.018673
v -7.771219 0.186742 3.018673
v -7.771219 0.186742 4.528010
v -7.771219 0.280113 3.018673
v -7.771219 0.093371 4.528010
v -7.771219 0.280113 4.528010
v -9.806207 0.209527 0.000000
v -9.806207 0.209527 6.037347
v -10.080891 0.209527 0.000000
v -10.080891 0.209527 6.037347
v -10.080891 0.080273 0.000000
v -10.080891 0.080273 6.037347
v -10.406433 0.080273 0.000000
v -10.406433 0.080273 6.037347
v -10.406433 -0.078211 0.000000
v -10.406433 -0.078211 6.037347
v -10.589340 -0.078211 0.000000
v -10.589340 -0.078211 6.037347
v -10.589340 -0.216223 0.000000
v -10.589340 -0.216223 6.037347
v -10.911645 -0.216223 0.000000
v -10.911645 -0.216223 6.037347
v -10.911645 -0.347936 0.000000
v -10.911645 -0.347936 6.037347
vt -1.000705 -0.652126
vt -0.947857 1.909135
vt 1.557798 1.844465
vt 1.504951 -0.716797
vt 0.878536 -0.700629
vt 0.252123 -0.684461
vt -0.374291 -0.668294
vt -0.995394 -0.951394
vt -0.995394 1.968194
vt 1.967838 1.968194
vt 1.967838 1.238297
vt 1.967838 0.508399
vt 1.967838 -0.221497
vt 1.967838 -0.951394
vt 0.916245 0.500000
vt 0.916245 0.007085
vt 0.460945 0.007085
vt 0.460945 0.500000
vt 0.358786 0.502454
vt 0.123084 0.148900
vt 0.108503 0.170772
vt 0.093921 0.192644
vt 0.079340 0.214516
vt 0.064759 0.236387
vt 0.300462 0.589941
vt 0.536164 0.943494
vt 0.550745 0.921622
vt 0.565326 0.899750
vt 0.579907 0.877879
vt 0.594488 0.856007
vt 0.838992 0.156111
vt 0.863844 0.193390
vt 0.261243 1.097291
vt 0.236391 1.060012
vt 0.118308 0.500000
vt 0.090142 0.500000
vt 0.090142 0.992915
vt 0.118308 0.992915
vt 0.146474 0.992915
vt 0.174640 0.992915
vt 0.174640 0.500000
vt 0.146474 0.500000
vt 0.338673 0.911096
vt 0.319369 0.882139
vt 0.300065 0.853183
vt 0.280761 0.824227
vt 0.748838 0.122110
vt 0.768143 0.151067
vt 0.787447 0.180023
vt 0.806751 0.208979
vt 0.826055 0.237936
vt 0.357978 0.940052
vt 0.005644 0.007085
vt 0.005644 0.500000
vt 0.460945 0.500000
vt 0.460945 0.007085
vt 0.988795 0.324443
vt 0.988775 0.324472
vt 0.988755 0.324502
vt 0.988280 0.323788
vt 0.988300 0.323759
vt 0.988319 0.323729
vt 0.988339 0.323700
vt 0.988814 0.324413
vt 0.061976 0.992915
vt 0.090142 0.992915
vt 0.090142 0.500000
vt 0.061976 0.500000
vt 0.033810 0.500000
vt 0.005644 0.992915
vt 0.033810 0.992915
vt 0.748618 -0.683285
vt 0.748618 1.802204
vt 0.876736 1.802204
vt 0.876736 -0.683285
vt 0.605969 1.807059
vt 0.605969 -0.683285
vt 0.391744 -0.683285
vt 0.391744 1.807059
vt 1.211343 -0.683285
vt 1.211343 1.802204
vt 1.312343 1.802204
vt 1.312343 -0.683285
vt 0.140385 1.807059
vt 0.140385 -0.683285
vt -0.113503 -0.683285
vt -0.113503 1.807059
vt 0.876736 -0.683285
vt 0.876736 1.802204
vt 1.000576 1.802204
vt 1.000576 -0.683285
vt 0.748618 1.807059
vt 0.748618 -0.683285
vt 0.605969 -0.683285
vt 0.605969 1.807059
vt 1.000576 -0.683285
vt 1.000576 1.802204
vt 1.108421 1.802204
vt 1.108421 -0.683285
vt 0.391744 1.807059
vt 0.391749 -0.683285
vt 0.140385 -0.683285
vt 0.140385 1.807059
vt 1.108421 -0.683285
vt 1.108421 1.802204
vt 1.211343 1.802204
vt 1.211343 -0.683285
vt -1.000705 -0.652126
vt -0.374291 -0.668294
vt 0.252123 -0.684461
vt 0.878536 -0.700629
vt 1.504951 -0.716797
vt 1.557798 1.844465
vt -0.947857 1.909135
vt 1.967838 -0.951394
vt 1.967838 -0.221497
vt 1.967838 0.508399
vt 1.967838 1.238297
vt 1.967838 1.968194
vt 0.916245 0.500000
vt 0.460945 0.500000
vt 0.460945 0.007085
vt 0.916245 0.007085
vt 0.358786 0.502454
vt 0.594488 0.856007
vt 0.579907 0.877879
vt 0.565326 0.899750
vt 0.550745 0.921622
vt 0.536164 0.943494
vt 0.300462 0.589941
vt 0.064759 0.236387
vt 0.079340 0.214516
vt 0.093921 0.192644
vt 0.108503 0.170772
vt 0.123084 0.148900
vt 0.838992 0.156111
vt 0.236391 1.060012
vt 0.261243 1.097291
vt 0.863844 0.193390
vt 0.118308 0.500000
vt 0.146474 0.500000
vt 0.174640 0.500000
vt 0.174640 0.992915
vt 0.146474 0.992915
vt 0.118308 0.992915
vt 0.090142 0.992915
vt 0.090142 0.500000
vt 0.338673 0.911096
vt 0.357978 0.940052
vt 0.826055 0.237936
vt 0.806751 0.208979
vt 0.787447 0.180023
vt 0.768143 0.151067
vt 0.748838 0.122110
vt 0.280761 0.824227
vt 0.300065 0.853183
vt 0.319369 0.882139
vt 0.005644 0.007085
vt 0.460945 0.007085
vt 0.460945 0.500000
vt 0.005644 0.500000
vt 0.988795 0.324443
vt 0.988814 0.324413
vt 0.988339 0.323700
vt 0.988319 0.323729
vt 0.988300 0.323759
vt 0.988280 0.323788
vt 0.988755 0.324502
vt 0.988775 0.324472
vt 0.061976 0.992915
vt 0.033810 0.992915
vt 0.005644 0.992915
vt 0.033810 0.500000
vt 0.061976 0.500000
vt 0.090142 0.500000
vt 0.090142 0.992915
vt 0.748618 -0.683285
vt 0.876736 -0.683285
vt 0.876736 1.802204
vt 0.748618 1.802204
vt 0.605969 1.807059
vt 0.391744 1.807059
vt 0.391744 -0.683285
vt 0.605969 -0.683285
vt 1.211343 -0.683285
vt 1.312343 -0.683285
vt 1.312343 1.802204
vt 1.211343 1.802204
vt 0.140385 1.807059
vt -0.113503 1.807059
vt -0.113503 -0.683285
vt 0.140385 -0.683285
vt 0.876736 -0.683285
vt 1.000576 -0.683285
vt 1.000576 1.802204
vt 0.876736 1.802204
vt 0.748618 1.807059
vt 0.605969 1.807059
vt 0.605969 -0.683285
vt 0.748618 -0.683285
vt 1.000576 -0.683285
vt 1.108421 -0.683285
vt 1.108421 1.802204
vt 1.000576 1.802204
vt 0.391744 1.807059
vt 0.140385 1.807059
vt 0.140385 -0.683285
vt 0.391749 -0.683285
vt 1.108421 -0.683285
vt 1.211343 -0.683285
vt 1.211343 1.802204
vt 1.108421 1.802204
vt -0.374291 -0.668294
vt 0.252123 -0.684461
vt 0.878536 -0.700629
vt 1.504951 -0.716797
vt 1.557798 1.844465
vt -0.995394 -0.951394
vt 1.967838 -0.951394
vt 1.967838 -0.221497
vt 1.967838 0.508399
vt 1.967838 1.238297
vt 0.916245 0.500000
vt 0.460945 0.500000
vt 0.460945 0.007085
vt 0.916245 0.007085
vt 0.358786 0.502454
vt 0.300462 0.589941
vt 0.064759 0.236387
vt 0.079340 0.214516
vt 0.093921 0.192644
vt 0.108503 0.170772
vt 0.123084 0.148900
vt 0.838992 0.156111
vt 0.236391 1.060012
vt 0.261243 1.097291
vt 0.863844 0.193390
vt 0.118308 0.500000
vt 0.146474 0.500000
vt 0.174640 0.500000
vt 0.174640 0.992915
vt 0.146474 0.992915
vt 0.118308 0.992915
vt 0.090142 0.992915
vt 0.090142 0.500000
vt 0.338673 0.911096
vt 0.357978 0.940052
vt 0.826055 0.237936
vt 0.806751 0.208979
vt 0.787447 0.180023
vt 0.768143 0.151067
vt 0.748838 0.122110
vt 0.280761 0.824227
vt 0.300065 0.853183
vt 0.319369 0.882139
vt 0.005644 0.007085
vt 0.460945 0.007085
vt 0.460945 0.500000
vt 0.005644 0.500000
vt 0.988795 0.324443
vt 0.988814 0.324413
vt 0.988339 0.323700
vt 0.988319 0.323729
vt 0.988300 0.323759
vt 0.988280 0.323788
vt 0.988755 0.324502
vt 0.988775 0.324472
vt 0.061976 0.992915
vt 0.033810 0.992915
vt 0.005644 0.992915
vt 0.033810 0.500000
vt 0.061976 0.500000
vt 0.090142 0.500000
vt 0.090142 0.992915
vt 0.748618 -0.683285
vt 0.876736 -0.683285
vt 0.605969 1.807059
vt 0.391744 1.807059
vt 1.211343 -0.683285
vt 1.312343 -0.683285
vt 0.140385 1.807059
vt -0.113503 1.807059
vt 0.876736 -0.683285
vt 1.000576 -0.683285
vt 0.748618 1.807059
vt 0.605969 1.807059
vt 1.000576 -0.683285
vt 1.108421 -0.683285
vt 0.391744 1.807059
vt 0.140385 1.807059
vt 1.108421 -0.683285
vt 1.211343 -0.683285
vt 1.557798 1.844465
vt 1.504951 -0.716797
vt 0.878536 -0.700629
vt 0.252123 -0.684461
vt -0.374291 -0.668294
vt 1.967838 1.238297
vt 1.967838 0.508399
vt 1.967838 -0.221497
vt 1.967838 -0.951394
vt 0.916245 0.500000
vt 0.916245 0.007085
vt 0.460945 0.007085
vt 0.460945 0.500000
vt 0.358786 0.502454
vt 0.123084 0.148900
vt 0.108503 0.170772
vt 0.093921 0.192644
vt 0.079340 0.214516
vt 0.064759 0.236387
vt 0.300462 0.589941
vt 0.838992 0.156111
vt 0.863844 0.193390
vt 0.261243 1.097291
vt 0.236391 1.060012
vt 0.118308 0.500000
vt 0.090142 0.500000
vt 0.090142 0.992915
vt 0.118308 0.992915
vt 0.146474 0.992915
vt 0.174640 0.992915
vt 0.174640 0.500000
vt 0.146474 0.500000
vt 0.338673 0.911096
vt 0.319369 0.882139
vt 0.300065 0.853183
vt 0.280761 0.824227
vt 0.748838 0.122110
vt 0.768143 0.151067
vt 0.787447 0.180023
vt 0.806751 0.208979
vt 0.826055 0.237936
vt 0.357978 0.940052
vt 0.005644 0.007085
vt 0.005644 0.500000
vt 0.460945 0.500000
vt 0.460945 0.007085
vt 0.988795 0.324443
vt 0.988775 0.324472
vt 0.988755 0.324502
vt 0.988280 0.323788
vt 0.988300 0.323759
vt 0.988319 0.323729
vt 0.988339 0.323700
vt 0.988814 0.324413
vt 0.061976 0.992915
vt 0.090142 0.992915
vt 0.090142 0.500000
vt 0.061976 0.500000
vt 0.033810 0.500000
vt 0.005644 0.992915
vt 0.033810 0.992915
vt 0.748618 -0.683285
vt 0.876736 -0.683285
vt 0.605969 1.807059
vt 0.391744 1.807059
vt 1.211343 -0.683285
vt 1.312343 -0.683285
vt 0.140385 1.807059
vt -0.113503 1.807059
vt 0.876736 -0.683285
vt 1.000576 -0.683285
vt 0.748618 1.807059
vt 0.605969 1.807059
vt 1.000576 -0.683285
vt 1.108421 -0.683285
vt 0.391744 1.807059
vt 0.140385 1.807059
vt 1.108421 -0.683285
vt 1.211343 -0.683285
vn 0.0000 1.0000 0.0000
vn 0.0311 0.9995 0.0000
vn -1.0000 0.0000 0.0000
vn 0.0000 0.0000 -1.0000
vn 0.0000 -1.0000 0.0000
vn 0.0000 0.0000 1.0000
vn 1.0000 0.0000 0.0000
vn -0.0311 0.9995 0.0000
usemtl Material.001
s off
f 74/1/1 75/2/1 3/3/1 1/4/1 12/5/1 5/6/1 9/7/1
f 38/8/2 128/9/2 76/10/2 10/11/2 6/12/2 13/13/2 2/14/2
f 6/15/1 20/16/1 19/17/1 13/18/1
f 9/19/3 5/20/3 14/21/3 7/22/3 15/23/3 6/24/3 10/25/3 76/26/3 86/27/3 81/28/3 90/29/3 74/30/3
f 14/31/3 5/32/3 12/33/3 18/34/3
f 7/35/4 14/36/4 24/37/4 22/38/4 21/39/4 20/40/4 6/41/4 15/42/4
f 8/43/3 4/44/3 11/45/3 2/46/3 13/47/3 17/48/3 16/49/3 18/50/3 12/51/3 1/52/3
f 18/53/5 26/54/5 24/55/5 14/56/5
f 23/57/3 25/58/3 19/59/3 20/60/3 21/61/3 22/62/3 24/63/3 26/64/3
f 17/65/6 13/66/6 19/67/6 25/68/6 23/69/6 26/54/6 18/70/6 16/71/6
f 3/72/7 75/73/7 104/74/7 27/75/7
f 27/76/1 104/77/1 106/78/1 28/79/1
f 28/80/7 106/81/7 108/82/7 29/83/7
f 29/84/1 108/85/1 110/86/1 30/87/1
f 30/88/7 110/89/7 112/90/7 31/91/7
f 31/92/1 112/93/1 114/94/1 32/95/1
f 32/96/7 114/97/7 116/98/7 33/99/7
f 33/100/1 116/101/1 118/102/1 34/103/1
f 34/104/7 118/105/7 120/106/7 35/107/7
f 124/108/1 45/109/1 41/110/1 48/111/1 36/112/1 39/113/1 125/114/1
f 38/8/8 37/115/8 49/116/8 42/117/8 46/118/8 127/119/8 128/9/8
f 42/120/1 49/121/1 55/122/1 56/123/1
f 45/124/7 124/125/7 142/126/7 133/127/7 138/128/7 127/129/7 46/130/7 42/131/7 51/132/7 43/133/7 50/134/7 41/135/7
f 50/136/7 54/137/7 48/138/7 41/139/7
f 43/140/4 51/141/4 42/142/4 56/143/4 57/144/4 58/145/4 60/146/4 50/147/4
f 44/148/7 36/149/7 48/150/7 54/151/7 52/152/7 53/153/7 49/154/7 37/155/7 47/156/7 40/157/7
f 54/158/5 50/159/5 60/160/5 62/161/5
f 59/162/7 62/163/7 60/164/7 58/165/7 57/166/7 56/167/7 55/168/7 61/169/7
f 53/170/6 52/171/6 54/172/6 62/161/6 59/173/6 61/174/6 55/175/6 49/176/6
f 39/177/3 63/178/3 156/179/3 125/180/3
f 63/181/1 64/182/1 158/183/1 156/184/1
f 64/185/3 65/186/3 160/187/3 158/188/3
f 65/189/1 66/190/1 162/191/1 160/192/1
f 66/193/3 67/194/3 164/195/3 162/196/3
f 67/197/1 68/198/1 166/199/1 164/200/1
f 68/201/3 69/202/3 168/203/3 166/204/3
f 69/205/1 70/206/1 170/207/1 168/208/1
f 70/209/3 71/210/3 172/211/3 170/212/3
f 74/1/1 84/213/1 79/214/1 88/215/1 72/216/1 77/217/1 75/2/1
f 126/218/2 73/219/2 89/220/2 80/221/2 85/222/2 76/10/2 128/9/2
f 80/223/1 89/224/1 96/225/1 97/226/1
f 84/227/3 74/30/3 90/29/3 81/28/3 86/27/3 76/26/3 85/228/3 80/229/3 92/230/3 82/231/3 91/232/3 79/233/3
f 91/234/3 95/235/3 88/236/3 79/237/3
f 82/238/6 92/239/6 80/240/6 97/241/6 98/242/6 99/243/6 101/244/6 91/245/6
f 83/246/3 72/247/3 88/248/3 95/249/3 93/250/3 94/251/3 89/252/3 73/253/3 87/254/3 78/255/3
f 95/256/5 91/257/5 101/258/5 103/259/5
f 100/260/3 103/261/3 101/262/3 99/263/3 98/264/3 97/265/3 96/266/3 102/267/3
f 94/268/4 93/269/4 95/270/4 103/259/4 100/271/4 102/272/4 96/273/4 89/274/4
f 77/275/7 105/276/7 104/74/7 75/73/7
f 105/277/1 107/278/1 106/78/1 104/77/1
f 107/279/7 109/280/7 108/82/7 106/81/7
f 109/281/1 111/282/1 110/86/1 108/85/1
f 111/283/7 113/284/7 112/90/7 110/89/7
f 113/285/1 115/286/1 114/94/1 112/93/1
f 115/287/7 117/288/7 116/98/7 114/97/7
f 117/289/1 119/290/1 118/102/1 116/101/1
f 119/291/7 121/292/7 120/106/7 118/105/7
f 124/108/1 125/114/1 129/293/1 122/294/1 140/295/1 131/296/1 136/297/1
f 126/218/8 128/9/8 127/119/8 137/298/8 132/299/8 141/300/8 123/301/8
f 132/302/1 149/303/1 148/304/1 141/305/1
f 136/306/7 131/307/7 143/308/7 134/309/7 144/310/7 132/311/7 137/312/7 127/129/7 138/128/7 133/127/7 142/126/7 124/125/7
f 143/313/7 131/314/7 140/315/7 147/316/7
f 134/317/6 143/318/6 153/319/6 151/320/6 150/321/6 149/322/6 132/323/6 144/324/6
f 135/325/7 130/326/7 139/327/7 123/328/7 141/329/7 146/330/7 145/331/7 147/332/7 140/333/7 122/334/7
f 147/335/5 155/336/5 153/337/5 143/338/5
f 152/339/7 154/340/7 148/341/7 149/342/7 150/343/7 151/344/7 153/345/7 155/346/7
f 146/347/4 141/348/4 148/349/4 154/350/4 152/351/4 155/336/4 147/352/4 145/353/4
f 129/354/3 125/180/3 156/179/3 157/355/3
f 157/356/1 156/184/1 158/183/1 159/357/1
f 159/358/3 158/188/3 160/187/3 161/359/3
f 161/360/1 160/192/1 162/191/1 163/361/1
f 163/362/3 162/196/3 164/195/3 165/363/3
f 165/364/1 164/200/1 166/199/1 167/365/1
f 167/366/3 166/204/3 168/203/3 169/367/3
f 169/368/1 168/208/1 170/207/1 171/369/1
f 171/370/3 170/212/3 172/211/3 173/371/3
