# Blender v2.93.6 OBJ File: 'water.blend'
# www.blender.org
mtllib water.mtl
o Plane
v -4.420397 0.000000 4.420397
v 4.420397 0.000000 4.420397
v -4.420397 0.000000 -4.420397
v 4.420397 0.000000 -4.420397
v -4.420397 0.000000 0.000000
v 0.000000 0.000000 4.420397
v 4.420397 0.000000 0.000000
v 0.000000 0.000000 -4.420397
v 0.000000 0.000000 0.000000
v -4.420397 0.000000 2.210198
v 2.210198 0.000000 4.420397
v 4.420397 0.000000 -2.210198
v -2.210198 0.000000 -4.420397
v -4.420397 0.000000 -2.210198
v -2.210198 0.000000 4.420397
v 4.420397 0.000000 2.210198
v 2.210198 0.000000 -4.420397
v 0.000000 0.000000 -2.210198
v 0.000000 0.000000 2.210198
v -2.210198 0.000000 0.000000
v 2.210198 0.000000 0.000000
v 2.210198 0.000000 2.210198
v -2.210198 0.000000 2.210198
v -2.210198 0.000000 -2.210198
v 2.210198 0.000000 -2.210198
v -4.420397 0.000000 3.315298
v 3.315298 0.000000 4.420397
v 4.420397 0.000000 -3.315298
v -3.315298 0.000000 -4.420397
v -4.420397 0.000000 -1.105099
v -1.105099 0.000000 4.420397
v 4.420397 0.000000 1.105099
v 1.105099 0.000000 -4.420397
v 0.000000 0.000000 -3.315298
v 0.000000 0.000000 1.105099
v -3.315298 0.000000 0.000000
v 1.105099 0.000000 0.000000
v -4.420397 0.000000 1.105099
v 1.105099 0.000000 4.420397
v 4.420397 0.000000 -1.105099
v -1.105099 0.000000 -4.420397
v -4.420397 0.000000 -3.315298
v -3.315298 0.000000 4.420397
v 4.420397 0.000000 3.315298
v 3.315298 0.000000 -4.420397
v 0.000000 0.000000 -1.105099
v 0.000000 0.000000 3.315298
v -1.105099 0.000000 0.000000
v 3.315298 0.000000 0.000000
v 2.210198 0.000000 1.105099
v 2.210198 0.000000 3.315298
v 1.105099 0.000000 2.210198
v 3.315298 0.000000 2.210198
v -2.210198 0.000000 1.105099
v -2.210198 0.000000 3.315298
v -3.315298 0.000000 2.210198
v -1.105099 0.000000 2.210198
v -2.210198 0.000000 -3.315298
v -2.210198 0.000000 -1.105099
v -3.315298 0.000000 -2.210198
v -1.105099 0.000000 -2.210198
v 2.210198 0.000000 -3.315298
v 2.210198 0.000000 -1.105099
v 1.105099 0.000000 -2.210198
v 3.315298 0.000000 -2.210198
v 3.315298 0.000000 -1.105099
v 1.105099 0.000000 -1.105099
v 1.105099 0.000000 -3.315298
v -1.105099 0.000000 -1.105099
v -3.315298 0.000000 -1.105099
v -3.315298 0.000000 -3.315298
v -1.105099 0.000000 3.315298
v -3.315298 0.000000 3.315298
v -3.315298 0.000000 1.105099
v 3.315298 0.000000 3.315298
v 1.105099 0.000000 3.315298
v 1.105099 0.000000 1.105099
v 3.315298 0.000000 1.105099
v -1.105099 0.000000 1.105099
v -1.105099 0.000000 -3.315298
v 3.315298 0.000000 -3.315298
vt 4.011054 1.547204
vt 4.819995 1.418890
vt 4.948310 2.227831
vt 4.139369 2.356146
vt 0.775289 2.060464
vt 1.584231 1.932149
vt 1.712545 2.741091
vt 0.903604 2.869405
vt 0.262030 -1.175301
vt 1.070971 -1.303616
vt 1.199286 -0.494674
vt 0.390345 -0.366360
vt 3.497795 -1.688560
vt 4.306736 -1.816875
vt 4.435050 -1.007934
vt 3.626109 -0.879619
vt 1.879913 -1.431930
vt 2.688853 -1.560245
vt 2.817168 -0.751304
vt 2.008228 -0.622989
vt 1.623283 -3.049812
vt 2.432224 -3.178127
vt 2.560539 -2.369186
vt 1.751598 -2.240871
vt 3.241165 -3.306442
vt 4.050106 -3.434757
vt 4.178421 -2.625816
vt 3.369480 -2.497501
vt -1.355852 -0.918671
vt -0.546911 -1.046986
vt -0.418596 -0.238045
vt -1.227537 -0.109730
vt -1.612482 -2.536553
vt -0.803540 -2.664868
vt -0.675226 -1.855927
vt -1.484167 -1.727612
vt 0.005401 -2.793183
vt 0.814342 -2.921497
vt 0.942656 -2.112556
vt 0.133715 -1.984242
vt -0.842593 2.317093
vt -0.033651 2.188778
vt 0.094663 2.997720
vt -0.714278 3.126035
vt -1.099222 0.699211
vt -0.290281 0.570896
vt -0.161966 1.379837
vt -0.970907 1.508152
vt 0.518660 0.442581
vt 1.327601 0.314267
vt 1.455916 1.123208
vt 0.646975 1.251523
vt 2.393172 1.803834
vt 3.202113 1.675519
vt 3.330427 2.484461
vt 2.521487 2.612776
vt 2.136542 0.185952
vt 2.945483 0.057637
vt 3.073798 0.866578
vt 2.264857 0.994893
vt 3.754424 -0.070678
vt 4.563365 -0.198993
vt 4.691680 0.609949
vt 3.882739 0.738263
vt -1.908164 0.827526
vt -1.779849 1.636467
vt -2.036479 0.018585
vt -1.651534 2.445408
vt -1.523219 3.254350
vt -0.931855 -3.473809
vt -0.122914 -3.602124
vt 0.686027 -3.730439
vt -2.421423 -2.408238
vt -2.293108 -1.599297
vt -2.549738 -3.217179
vt -1.740796 -3.345494
vt -2.164793 -0.790356
vt 2.303909 -3.987068
vt 3.112850 -4.115383
vt 3.921791 -4.243698
vt 1.494968 -3.858754
vn 0.0000 1.0000 0.0000
usemtl Material.001
s off
f 81/1/1 28/2/1 4/3/1 45/4/1
f 80/5/1 34/6/1 8/7/1 41/8/1
f 79/9/1 35/10/1 9/11/1 48/12/1
f 78/13/1 32/14/1 7/15/1 49/16/1
f 77/17/1 50/18/1 21/19/1 37/20/1
f 76/21/1 51/22/1 22/23/1 52/24/1
f 75/25/1 44/26/1 16/27/1 53/28/1
f 74/29/1 54/30/1 20/31/1 36/32/1
f 73/33/1 55/34/1 23/35/1 56/36/1
f 72/37/1 47/38/1 19/39/1 57/40/1
f 71/41/1 58/42/1 13/43/1 29/44/1
f 70/45/1 59/46/1 24/47/1 60/48/1
f 69/49/1 46/50/1 18/51/1 61/52/1
f 68/53/1 62/54/1 17/55/1 33/56/1
f 67/57/1 63/58/1 25/59/1 64/60/1
f 66/61/1 40/62/1 12/63/1 65/64/1
f 63/58/1 66/61/1 65/64/1 25/59/1
f 21/19/1 49/16/1 66/61/1 63/58/1
f 49/16/1 7/15/1 40/62/1 66/61/1
f 46/50/1 67/57/1 64/60/1 18/51/1
f 9/11/1 37/20/1 67/57/1 46/50/1
f 37/20/1 21/19/1 63/58/1 67/57/1
f 34/6/1 68/53/1 33/56/1 8/7/1
f 18/51/1 64/60/1 68/53/1 34/6/1
f 64/60/1 25/59/1 62/54/1 68/53/1
f 59/46/1 69/49/1 61/52/1 24/47/1
f 20/31/1 48/12/1 69/49/1 59/46/1
f 48/12/1 9/11/1 46/50/1 69/49/1
f 30/65/1 70/45/1 60/48/1 14/66/1
f 5/67/1 36/32/1 70/45/1 30/65/1
f 36/32/1 20/31/1 59/46/1 70/45/1
f 42/68/1 71/41/1 29/44/1 3/69/1
f 14/66/1 60/48/1 71/41/1 42/68/1
f 60/48/1 24/47/1 58/42/1 71/41/1
f 55/34/1 72/37/1 57/40/1 23/35/1
f 15/70/1 31/71/1 72/37/1 55/34/1
f 31/71/1 6/72/1 47/38/1 72/37/1
f 26/73/1 73/33/1 56/36/1 10/74/1
f 1/75/1 43/76/1 73/33/1 26/73/1
f 43/76/1 15/70/1 55/34/1 73/33/1
f 38/77/1 74/29/1 36/32/1 5/67/1
f 10/74/1 56/36/1 74/29/1 38/77/1
f 56/36/1 23/35/1 54/30/1 74/29/1
f 51/22/1 75/25/1 53/28/1 22/23/1
f 11/78/1 27/79/1 75/25/1 51/22/1
f 27/79/1 2/80/1 44/26/1 75/25/1
f 47/38/1 76/21/1 52/24/1 19/39/1
f 6/72/1 39/81/1 76/21/1 47/38/1
f 39/81/1 11/78/1 51/22/1 76/21/1
f 35/10/1 77/17/1 37/20/1 9/11/1
f 19/39/1 52/24/1 77/17/1 35/10/1
f 52/24/1 22/23/1 50/18/1 77/17/1
f 50/18/1 78/13/1 49/16/1 21/19/1
f 22/23/1 53/28/1 78/13/1 50/18/1
f 53/28/1 16/27/1 32/14/1 78/13/1
f 54/30/1 79/9/1 48/12/1 20/31/1
f 23/35/1 57/40/1 79/9/1 54/30/1
f 57/40/1 19/39/1 35/10/1 79/9/1
f 58/42/1 80/5/1 41/8/1 13/43/1
f 24/47/1 61/52/1 80/5/1 58/42/1
f 61/52/1 18/51/1 34/6/1 80/5/1
f 62/54/1 81/1/1 45/4/1 17/55/1
f 25/59/1 65/64/1 81/1/1 62/54/1
f 65/64/1 12/63/1 28/2/1 81/1/1
